<svg width="29" height="30" viewBox="0 0 29 30" fill="none" xmlns="http://www.w3.org/2000/svg">
<g filter="url(#filter0_d_21_3665)">
<path d="M8.38589 16.3665C7.99186 15.8419 7.59782 14.9238 6.80975 13.7433C6.41571 13.0875 5.2336 11.7759 4.83957 11.2513C4.57688 10.7266 4.57688 10.4643 4.70822 9.93966C4.83957 9.15269 5.62764 8.49689 6.54706 8.49689C7.20378 8.49689 7.86051 9.02153 8.38589 9.41501C8.64858 9.67734 9.04262 10.202 9.30531 10.4643C9.568 10.7266 9.568 10.8578 9.83069 11.1201C10.0934 11.5136 10.2247 11.7759 10.0934 11.2513C9.96204 10.5955 9.83069 9.54617 9.568 8.49689C9.43665 7.70993 9.30531 7.57877 9.17396 7.05413C9.04262 6.39832 8.91127 6.00484 8.77993 5.34904C8.64858 4.95556 8.51724 3.90627 8.38589 3.38163C8.25455 2.72583 8.25455 1.54539 8.77993 1.02074C9.17396 0.627262 9.96204 0.496102 10.4874 0.758423C11.1441 1.1519 11.5382 2.07003 11.6695 2.46351C11.9322 3.11931 12.1949 4.03743 12.3263 5.08672C12.5889 6.39832 12.983 8.36573 12.983 8.75921C12.983 8.23457 12.8516 7.31645 12.983 6.79181C13.1143 6.39832 13.377 5.87368 13.9024 5.74252C14.2964 5.61136 14.6905 5.61136 15.0845 5.61136C15.4785 5.74252 15.8726 6.00484 16.1353 6.26716C16.6606 7.05413 16.6606 8.75921 16.6606 8.62805C16.792 8.10341 16.792 7.05413 17.0547 6.52948C17.186 6.26716 17.7114 6.00484 17.9741 5.87368C18.3681 5.74252 18.8935 5.74252 19.2876 5.87368C19.5502 5.87368 20.0756 6.26716 20.207 6.52948C20.4697 6.92296 20.601 8.23457 20.7324 8.75921C20.7324 8.89037 20.8637 8.23457 21.1264 7.84109C21.6518 7.05412 23.4906 6.7918 23.6219 8.62805C23.6219 9.54617 23.6219 9.41501 23.6219 10.0708C23.6219 10.7266 23.6219 11.1201 23.6219 11.6447C23.6219 12.1694 23.4906 13.3498 23.3593 13.8745C23.2279 14.268 22.8339 15.1861 22.4398 15.7107C22.4398 15.7107 20.995 17.2846 20.8637 18.0716C20.7324 18.8586 20.7324 18.8586 20.7324 19.3832C20.7324 19.9079 20.8637 20.5637 20.8637 20.5637C20.8637 20.5637 19.8129 20.6948 19.2876 20.5637C18.7622 20.4325 18.1054 19.5144 17.9741 19.1209C17.7114 18.7274 17.3174 18.7274 17.0547 19.1209C16.792 19.6455 16.1353 20.5637 15.6099 20.5637C14.6905 20.6948 12.8516 20.5637 11.5382 20.5637C11.5382 20.5637 11.8009 19.252 11.2755 18.7274C10.8815 18.3339 10.2247 17.6781 9.83069 17.2846L8.38589 16.3665Z" fill="white"/>
<path d="M8.38589 16.3665C7.99186 15.8419 7.59782 14.9238 6.80975 13.7433C6.41571 13.0875 5.2336 11.7759 4.83957 11.2513C4.57688 10.7266 4.57688 10.4643 4.70822 9.93966C4.83957 9.15269 5.62764 8.49689 6.54706 8.49689C7.20378 8.49689 7.86051 9.02153 8.38589 9.41501C8.64858 9.67734 9.04262 10.202 9.30531 10.4643C9.568 10.7266 9.568 10.8578 9.83069 11.1201C10.0934 11.5136 10.2247 11.7759 10.0934 11.2513C9.96204 10.5955 9.83069 9.54617 9.568 8.49689C9.43665 7.70993 9.30531 7.57877 9.17396 7.05413C9.04262 6.39832 8.91127 6.00484 8.77993 5.34904C8.64858 4.95556 8.51724 3.90627 8.38589 3.38163C8.25455 2.72583 8.25455 1.54539 8.77993 1.02074C9.17396 0.627262 9.96204 0.496102 10.4874 0.758423C11.1441 1.1519 11.5382 2.07003 11.6695 2.46351C11.9322 3.11931 12.1949 4.03743 12.3263 5.08672C12.5889 6.39832 12.983 8.36573 12.983 8.75921C12.983 8.23457 12.8516 7.31645 12.983 6.79181C13.1143 6.39832 13.377 5.87368 13.9024 5.74252C14.2964 5.61136 14.6905 5.61136 15.0845 5.61136C15.4785 5.74252 15.8726 6.00484 16.1353 6.26716C16.6606 7.05413 16.6606 8.75921 16.6606 8.62805C16.792 8.10341 16.792 7.05413 17.0547 6.52948C17.186 6.26716 17.7114 6.00484 17.9741 5.87368C18.3681 5.74252 18.8935 5.74252 19.2876 5.87368C19.5502 5.87368 20.0756 6.26716 20.207 6.52948C20.4697 6.92296 20.601 8.23457 20.7324 8.75921C20.7324 8.89037 20.8637 8.23457 21.1264 7.84109C21.6518 7.05413 23.4906 6.7918 23.6219 8.62805C23.6219 9.54617 23.6219 9.41501 23.6219 10.0708C23.6219 10.7266 23.6219 11.1201 23.6219 11.6447C23.6219 12.1694 23.4906 13.3498 23.3593 13.8745C23.2279 14.268 22.8339 15.1861 22.4398 15.7107C22.4398 15.7107 20.995 17.2846 20.8637 18.0716C20.7324 18.8586 20.7324 18.8586 20.7324 19.3832C20.7324 19.9079 20.8637 20.5637 20.8637 20.5637C20.8637 20.5637 19.8129 20.6948 19.2876 20.5637C18.7622 20.4325 18.1054 19.5144 17.9741 19.1209C17.7114 18.7274 17.3174 18.7274 17.0547 19.1209C16.792 19.6455 16.1353 20.5637 15.6099 20.5637C14.6905 20.6948 12.8516 20.5637 11.5382 20.5637C11.5382 20.5637 11.8009 19.252 11.2755 18.7274C10.8815 18.3339 10.2247 17.6781 9.83069 17.2846L8.38589 16.3665Z" stroke="black" stroke-width="1.24395" stroke-linecap="round" stroke-linejoin="round"/>
<path d="M19.2875 16.7599V12.3005" stroke="black" stroke-width="1.24395" stroke-linecap="round"/>
<path d="M16.6607 16.7599L16.5294 12.3005" stroke="black" stroke-width="1.24395" stroke-linecap="round"/>
<path d="M14.0338 12.3005V16.7599" stroke="black" stroke-width="1.24395" stroke-linecap="round"/>
</g>
<defs>
<filter id="filter0_d_21_3665" x="0" y="0" width="28.2439" height="29.244" filterUnits="userSpaceOnUse" color-interpolation-filters="sRGB">
<feFlood flood-opacity="0" result="BackgroundImageFix"/>
<feColorMatrix in="SourceAlpha" type="matrix" values="0 0 0 0 0 0 0 0 0 0 0 0 0 0 0 0 0 0 127 0" result="hardAlpha"/>
<feOffset dy="4"/>
<feGaussianBlur stdDeviation="2"/>
<feColorMatrix type="matrix" values="0 0 0 0 0 0 0 0 0 0 0 0 0 0 0 0 0 0 0.25 0"/>
<feBlend mode="normal" in2="BackgroundImageFix" result="effect1_dropShadow_21_3665"/>
<feBlend mode="normal" in="SourceGraphic" in2="effect1_dropShadow_21_3665" result="shape"/>
</filter>
</defs>
</svg>
